<svg xmlns="http://www.w3.org/2000/svg" fill="none" viewBox="0 0 350.00000000000006 182.88559160051628" preserveAspectRatio="xMidYMid meet" class="css-8aabad" id="hbecgfhc"><defs id="SvgjsDefs1001"></defs><g id="SvgjsG1007" featurekey="symbolFeature-0" transform="matrix(1.2259571804353104,0,0,1.2259571804353104,114.38963863990672,-6.129785902176552)" fill="#111"><path xmlns="http://www.w3.org/2000/svg" d="M73.591,21.324v-3.697c0-0.161-0.034-0.321-0.086-0.479l21.103-6.051L50.02,5L5.392,11.338l13.302,3.75v5.134  c-0.626,0.132-1.097,0.668-1.141,1.323h-0.01c0,0.012,0.005,0.024,0.006,0.036c-0.001,0.02-0.006,0.039-0.006,0.059h0.009v7.307h0.6  v-6.686c0.052,0.022,0.107,0.041,0.164,0.059v7.226h0.6v-7.124c0.026,0.001,0.051,0.005,0.077,0.005c0.03,0,0.057-0.004,0.087-0.005  v7.125h0.6v-7.229c0.057-0.019,0.112-0.038,0.164-0.061v6.69h0.6V21.64h0c0,0,0,0,0-0.001v-0.095c0,0,0,0,0,0h-0.01  c-0.043-0.654-0.515-1.191-1.141-1.323v-4.965l7.161,2.019c-0.028,0.116-0.047,0.233-0.047,0.351v9.636  c-4.846,4.993-7.851,11.781-7.892,19.263l-7.786,22.076h10.433V74.1h0.9v0.002h-0.9c0,5.826,4.739,10.565,10.565,10.565h5.85V95  h15.541h13.297h15.54V66.144c5.104-5.241,7.91-12.138,7.91-19.463C89.866,35.443,83.186,25.742,73.591,21.324z M24.103,50.254  c0-1.9,1.541-3.44,3.441-3.44c1.9,0,3.441,1.541,3.441,3.44c0,1.901-1.541,3.441-3.441,3.441  C25.644,53.695,24.103,52.155,24.103,50.254z M80.42,65.138l-0.263,0.264V93.2H54.919V82.867h-7.65  c-4.833,0-8.764-3.932-8.764-8.765h-0.9V74.1h0.9v-7.299h-9.689l7.042-19.967v-0.154c0-14.394,11.71-26.105,26.104-26.105  c14.394,0,26.104,11.711,26.104,26.105C88.066,53.651,85.351,60.206,80.42,65.138z M47.003,50.254c0,1.901-1.541,3.441-3.441,3.441  c-1.9,0-3.441-1.541-3.441-3.441c0-1.9,1.541-3.44,3.441-3.44C45.462,46.814,47.003,48.354,47.003,50.254z M79.633,38.017  c0.741,0.973,1.185,2.185,1.185,3.504c0,1.53-0.599,2.922-1.577,3.957c-0.166,2.185-1.551,4.031-3.483,4.862v0.021  c-2.357,1.373-3.767,3.716-4.193,6.528h-2.182l-1.216-0.003H66.09v-6.2c0-2.276-1.427-4.435-3.226-5.203  c-0.858-0.334-1.753-0.892-2.404-1.621c-0.929,0.631-2.045,1.003-3.243,1.003c-1.203,0-2.318-0.366-3.244-0.993  c-0.917,0.603-2.026,0.959-3.214,0.959c-3.26,0-5.898-2.644-5.9-5.904c0-2.433,1.473-4.524,3.579-5.423  c0.572-2.599,2.873-4.541,5.644-4.541c0.147,0,0.28,0.013,0.417,0.019c1.045-1.526,2.798-2.524,4.786-2.524  c0.984,0,1.908,0.245,2.719,0.682c0.915-0.609,2.01-0.962,3.188-0.962c1.513,0,2.893,0.589,3.926,1.548  c0.434-0.103,0.882-0.166,1.35-0.166c2.338,0,4.359,1.408,5.262,3.424c2.375,0.719,4.103,2.922,4.103,5.528  C79.833,37.033,79.762,37.537,79.633,38.017z"></path></g><g id="SvgjsG1008" featurekey="fiAKjI-0" transform="matrix(1.8559762254831162,0,0,1.8559762254831162,-2.8210829423359707,120.23756551415799)" fill="#111"><path d="M3.46 5.640000000000001 l0 12.64 l7.28 0 l0 1.72 l-9.22 0 l0 -14.36 l1.94 0 z M23.44 18.28 l0 1.72 l-10.6 0 l0 -14.36 l10.46 0 l0 1.72 l-8.52 0 l0 4.4 l7.86 0 l0 1.72 l-7.86 0 l0 4.8 l8.66 0 z M34 15.82 l-5.76 0 l-1.5 4.18 l-2 0 l5.4 -14.36 l2.2 0 l5.2 14.36 l-2.12 0 z M28.84 14.1 l4.46 0 l-2.12 -6.32 l-0.04 0 z M41.5 13.84 l0 6.16 l-1.94 0 l0 -14.36 l6.64 0 c2.36 0 4.72 0.82 4.72 3.86 c0 2.12 -1.08 2.9 -2 3.44 c0.82 0.34 1.64 0.7 1.72 2.7 l0.12 2.6 c0.02 0.8 0.12 1.1 0.72 1.44 l0 0.32 l-2.38 0 c-0.28 -0.88 -0.34 -3.06 -0.34 -3.6 c0 -1.18 -0.24 -2.56 -2.56 -2.56 l-4.7 0 z M41.5 7.300000000000001 l0 4.88 l4.5 0 c1.42 0 2.92 -0.36 2.92 -2.48 c0 -2.22 -1.62 -2.4 -2.58 -2.4 l-4.84 0 z M63.279999999999994 17.240000000000002 l0 -11.6 l1.88 0 l0 14.36 l-2.18 0 l-7.3 -11.6 l-0.04 0 l0 11.6 l-1.88 0 l0 -14.36 l2.3 0 l7.18 11.6 l0.04 0 z M67.86 10.74 l0 -5.1 l1.46 0 l0 5.1 l-1.46 0 z M72.12 20 l0 -14.36 l5.82 0 c3.74 0 6.04 2.84 6.04 6.98 c0 3.22 -1.4 7.38 -6.12 7.38 l-5.74 0 z M74.06 7.300000000000001 l0 11.04 l3.76 0 c2.52 0 4.16 -1.98 4.16 -5.6 s-1.66 -5.44 -4.3 -5.44 l-3.62 0 z M90.78 7.359999999999999 l0 -1.72 l11.66 0 l0 1.72 l-4.86 0 l0 12.64 l-1.94 0 l0 -12.64 l-4.86 0 z M115.5 12.82 c0 -3.38 -1.88 -5.84 -5 -5.84 s-5 2.46 -5 5.84 s1.88 5.84 5 5.84 s5 -2.46 5 -5.84 z M117.5 12.82 c0 3.1 -1.64 7.56 -7 7.56 s-7 -4.46 -7 -7.56 s1.64 -7.56 7 -7.56 s7 4.46 7 7.56 z M124.12 7.359999999999999 l0 -1.72 l11.66 0 l0 1.72 l-4.86 0 l0 12.64 l-1.94 0 l0 -12.64 l-4.86 0 z M148.38 18.28 l0 1.72 l-10.6 0 l0 -14.36 l10.46 0 l0 1.72 l-8.52 0 l0 4.4 l7.86 0 l0 1.72 l-7.86 0 l0 4.8 l8.66 0 z M158.94 15.82 l-5.76 0 l-1.5 4.18 l-2 0 l5.4 -14.36 l2.2 0 l5.2 14.36 l-2.12 0 z M153.78 14.1 l4.46 0 l-2.12 -6.32 l-0.04 0 z M176.22 9.96 l-1.88 0 c-0.54 -2.52 -2.64 -2.98 -4.02 -2.98 c-2.6 0 -4.7 1.92 -4.7 5.7 c0 3.38 1.2 5.98 4.76 5.98 c1.26 0 3.44 -0.6 4.1 -3.94 l1.88 0 c-0.8 5.42 -5.2 5.66 -6.28 5.66 c-3.26 0 -6.46 -2.12 -6.46 -7.64 c0 -4.42 2.52 -7.48 6.7 -7.48 c3.7 0 5.62 2.3 5.9 4.7 z M188.16 11.58 l0 -5.94 l1.94 0 l0 14.36 l-1.94 0 l0 -6.7 l-7.5 0 l0 6.7 l-1.94 0 l0 -14.36 l1.94 0 l0 5.94 l7.5 0 z"></path></g><g id="SvgjsG1009" featurekey="sloganFeature-0" transform="matrix(1.033721597848336,0,0,1.033721597848336,34.04897611272744,162.0044145353129)" fill="#111"><path d="M0.92 18.54 c0.88 0.82 2.7 1.66 4.52 1.66 c2.8 0 4.58 -1.44 4.58 -3.7 c0 -1.84 -0.88 -2.92 -3.92 -4.64 c-2.32 -1.34 -2.88 -1.78 -2.88 -2.66 c0 -0.94 0.88 -1.68 2.36 -1.68 c0.86 0 2 0.38 2.66 0.8 l0.96 -1.44 c-0.94 -0.62 -2.42 -1.08 -3.6 -1.08 c-2.58 0 -4.3 1.48 -4.3 3.42 c0 1.72 0.86 2.58 3.5 4.02 c2.34 1.28 3.3 2.22 3.3 3.24 c0 1.2 -1.04 1.92 -2.66 1.92 c-1.4 0 -2.8 -0.66 -3.5 -1.3 z M23.907 7.720000000000001 l-4.08 0 l0 12.28 l-1.8 0 l0 -12.28 l-4.1 0 l0.12 -1.72 l9.74 0 z M28.494 14.46 l0 -8.46 l1.8 0 l0 8.32 c0 2.7 1.56 4.08 3.76 4.08 s3.78 -1.38 3.78 -4.08 l0 -8.32 l1.78 0 l0 8.46 c0 3.64 -2.08 5.74 -5.56 5.74 c-3.46 0 -5.56 -2.1 -5.56 -5.74 z M50.221000000000004 6 c4.64 0 7.2 2.84 7.2 7 s-2.56 7 -7.2 7 l-4.8 0 l0 -14 l4.8 0 z M50.321000000000005 18.28 c3.4 0 5.3 -2.12 5.3 -5.28 c0 -3.18 -1.9 -5.28 -5.3 -5.28 l-3.1 0 l0 10.56 l3.1 0 z M71.208 18.28 l0.12 1.72 l-8.52 0 l0 -14 l8.12 0 l0.14 1.72 l-6.46 0 l0 3.42 l4.38 0 l0 1.72 l-4.38 0 l0 5.42 l6.6 0 z M86.075 6 l1.8 0 l0 14.2 l-0.22 0 l-9.4 -9.98 l0 9.78 l-1.78 0 l0 -14.2 l0.2 0 l9.4 9.98 l0 -9.78 z M102.542 7.720000000000001 l-4.08 0 l0 12.28 l-1.8 0 l0 -12.28 l-4.1 0 l0.12 -1.72 l9.74 0 z M106.489 18.54 c0.88 0.82 2.7 1.66 4.52 1.66 c2.8 0 4.58 -1.44 4.58 -3.7 c0 -1.84 -0.88 -2.92 -3.92 -4.64 c-2.32 -1.34 -2.88 -1.78 -2.88 -2.66 c0 -0.94 0.88 -1.68 2.36 -1.68 c0.86 0 2 0.38 2.66 0.8 l0.96 -1.44 c-0.94 -0.62 -2.42 -1.08 -3.6 -1.08 c-2.58 0 -4.3 1.48 -4.3 3.42 c0 1.72 0.86 2.58 3.5 4.02 c2.34 1.28 3.3 2.22 3.3 3.24 c0 1.2 -1.04 1.92 -2.66 1.92 c-1.4 0 -2.8 -0.66 -3.5 -1.3 z M138.863 7.720000000000001 l-4.08 0 l0 12.28 l-1.8 0 l0 -12.28 l-4.1 0 l0.12 -1.72 l9.74 0 z M150.21 20.2 c-4 0 -7.18 -3.2 -7.18 -7.2 s3.18 -7.2 7.18 -7.2 s7.18 3.2 7.18 7.2 s-3.18 7.2 -7.18 7.2 z M150.21 18.48 c3.04 0 5.32 -2.38 5.32 -5.48 s-2.28 -5.48 -5.32 -5.48 c-3.06 0 -5.34 2.38 -5.34 5.48 s2.28 5.48 5.34 5.48 z M185.54400000000004 5.800000000000001 l0.22 0 l0 14.2 l-1.78 0 l0 -9.42 l-4.96 6.48 l-0.12 0 l-4.96 -6.46 l0 9.4 l-1.78 0 l0 -14.2 l0.2 0 l6.6 8.4 z M200.89100000000005 20 l-1.22 -2.84 l-6.24 0 l-1.22 2.84 l-1.92 0 l6.16 -14.2 l0.2 0 l6.16 14.2 l-1.92 0 z M194.15100000000004 15.48 l4.8 0 l-2.4 -5.54 z M206.57800000000003 18.54 c0.88 0.82 2.7 1.66 4.52 1.66 c2.8 0 4.58 -1.44 4.58 -3.7 c0 -1.84 -0.88 -2.92 -3.92 -4.64 c-2.32 -1.34 -2.88 -1.78 -2.88 -2.66 c0 -0.94 0.88 -1.68 2.36 -1.68 c0.86 0 2 0.38 2.66 0.8 l0.96 -1.44 c-0.94 -0.62 -2.42 -1.08 -3.6 -1.08 c-2.58 0 -4.3 1.48 -4.3 3.42 c0 1.72 0.86 2.58 3.5 4.02 c2.34 1.28 3.3 2.22 3.3 3.24 c0 1.2 -1.04 1.92 -2.66 1.92 c-1.4 0 -2.8 -0.66 -3.5 -1.3 z M229.56500000000005 7.720000000000001 l-4.08 0 l0 12.28 l-1.8 0 l0 -12.28 l-4.1 0 l0.12 -1.72 l9.74 0 z M242.69200000000006 18.28 l0.12 1.72 l-8.52 0 l0 -14 l8.12 0 l0.14 1.72 l-6.46 0 l0 3.42 l4.38 0 l0 1.72 l-4.38 0 l0 5.42 l6.6 0 z M258.13900000000007 11.06 c0 2.26 -1.06 4.2 -3.24 4.84 l3.02 4.1 l-2.16 0 l-2.86 -3.88 l-3.14 0 l0 3.88 l-1.8 0 l0 -14 l5.28 0 c3.3 0 4.9 2.28 4.9 5.06 z M249.75900000000007 7.68 l0 6.74 l3.4 0 c2.26 0 3.18 -1.66 3.18 -3.36 s-0.92 -3.38 -3.18 -3.38 l-3.4 0 z M262.6860000000001 18.54 c0.88 0.82 2.7 1.66 4.52 1.66 c2.8 0 4.58 -1.44 4.58 -3.7 c0 -1.84 -0.88 -2.92 -3.92 -4.64 c-2.32 -1.34 -2.88 -1.78 -2.88 -2.66 c0 -0.94 0.88 -1.68 2.36 -1.68 c0.86 0 2 0.38 2.66 0.8 l0.96 -1.44 c-0.94 -0.62 -2.42 -1.08 -3.6 -1.08 c-2.58 0 -4.3 1.48 -4.3 3.42 c0 1.72 0.86 2.58 3.5 4.02 c2.34 1.28 3.3 2.22 3.3 3.24 c0 1.2 -1.04 1.92 -2.66 1.92 c-1.4 0 -2.8 -0.66 -3.5 -1.3 z"></path></g></svg>